Table Customer {
  customer_id INTEGER [primary key]
  first_name VARCHAR(50) [not null]
  last_name VARCHAR(50) [not null]
  address VARCHAR(100) [not null]
  email VARCHAR(255) [unique, not null]
}

Table Order {
  order_id INTEGER [primary key]
  customer_id INTEGER [not null, ref: > Customer.customer_id]
  order_date TIMESTAMP [not null]
}

Table OrderLine {
  orderline_id INTEGER [primary key, note: "this is a surrogate key combining order_id and product_id"]
  order_id INTEGER [not null, ref: > Order.order_id]
  product_id INTEGER [not null, ref: > Product.product_id]
}

Table Product {
  product_id INTEGER [primary key]
  name VARCHAR [not null]
  price INTEGER [not null]

  Note: "Business Rule: A Product can exist without being in an OrderLine"
}